<?xml version="1.0" standalone="no"?>
<!DOCTYPE svg PUBLIC "-//W3C//DTD SVG 20010904//EN"
 "http://www.w3.org/TR/2001/REC-SVG-20010904/DTD/svg10.dtd">
<svg version="1.0" xmlns="http://www.w3.org/2000/svg"
 width="72.000000pt" height="72.000000pt" viewBox="0 0 72.000000 72.000000"
 preserveAspectRatio="xMidYMid meet">
<metadata>
Created by potrace 1.11, written by Peter Selinger 2001-2013
</metadata>
<g transform="translate(0.000000,72.000000) scale(0.100000,-0.100000)"
fill="#000000" stroke="none">
<path d="M60 345 c0 -238 2 -275 15 -275 13 0 15 37 15 275 0 238 -2 275 -15
275 -13 0 -15 -37 -15 -275z"/>
<path d="M110 345 c0 -268 0 -275 20 -275 20 0 20 7 20 275 0 268 0 275 -20
275 -20 0 -20 -7 -20 -275z"/>
<path d="M170 345 c0 -238 2 -275 15 -275 13 0 15 37 15 275 0 238 -2 275 -15
275 -13 0 -15 -37 -15 -275z"/>
<path d="M230 345 c0 -238 2 -275 15 -275 13 0 15 37 15 275 0 238 -2 275 -15
275 -13 0 -15 -37 -15 -275z"/>
<path d="M280 345 l0 -275 45 0 45 0 0 275 0 275 -45 0 -45 0 0 -275z"/>
<path d="M450 345 c0 -268 0 -275 20 -275 20 0 20 7 20 275 0 268 0 275 -20
275 -20 0 -20 -7 -20 -275z"/>
<path d="M510 345 l0 -275 45 0 45 0 0 275 0 275 -45 0 -45 0 0 -275z"/>
<path d="M620 345 c0 -238 2 -275 15 -275 13 0 15 37 15 275 0 238 -2 275 -15
275 -13 0 -15 -37 -15 -275z"/>
</g>
</svg>
